<?xml version="1.0" encoding="utf-8"?>
<!-- Svg Vector Icons : http://www.onlinewebfonts.com/icon -->
<!DOCTYPE svg PUBLIC "-//W3C//DTD SVG 1.1//EN" "http://www.w3.org/Graphics/SVG/1.1/DTD/svg11.dtd">
<svg version="1.1" xmlns="http://www.w3.org/2000/svg" xmlns:xlink="http://www.w3.org/1999/xlink" x="0px" y="0px" viewBox="0 0 1000 1000" enable-background="new 0 0 1000 1000" xml:space="preserve">
<metadata> Svg Vector Icons : http://www.onlinewebfonts.com/icon </metadata>
<g><path d="M971.9,971.9c-24.1,24.1-63.2,24.1-87.3,0L695.1,782.5C623.6,835.9,535.2,868,439,868C202.1,868,10,675.9,10,439C10,202.1,202.1,10,439,10c236.9,0,429,192.1,429,429c0,96.1-32,184.6-85.5,256.2l189.4,189.4C996,908.7,996,947.8,971.9,971.9z M439,132.6c-169.2,0-306.4,137.2-306.4,306.4c0,169.2,137.2,306.4,306.4,306.4S745.4,608.2,745.4,439C745.4,269.8,608.2,132.6,439,132.6z"/></g>
</svg>